# xmcd
#
# Track frame offsets:
#	150
#	41399
#	62772
#	111190
#	154421
#
# Disc length: 2456 seconds
#
# Revision: 2
# Processed by: cddbd v1.5.2PL0 Copyright (c) Steve Scherf et al.
# Submitted via: EZCDAudioConverter 7.1.1.1
#
DISCID=3c099605
DTITLE=Grateful Dead - Dave's Picks Vol. 25 (Broome County, Binghampton '77)
DYEAR=2018
DGENRE=Psychedelic Rock
TTITLE0=Samson and Delilah
TTITLE1=Sunrise
TTITLE2=Scarlet Begonias >
TTITLE3=Fire on the Mountain >
TTITLE4=Good Lovin'
EXTD=
EXTT0=
EXTT1=
EXTT2=
EXTT3=
EXTT4=
PLAYORDER=
